<svg width="300" height="300" viewBox="0 0 300 300" fill="none" xmlns="http://www.w3.org/2000/svg">
  <!-- Background -->
  <rect width="300" height="300" fill="#f8fafc" stroke="#e2e8f0" stroke-width="2"/>
  
  <!-- Medicine Box Icon -->
  <g transform="translate(75, 75)">
    <!-- Box Base -->
    <rect x="20" y="60" width="110" height="80" fill="#ffffff" stroke="#cbd5e1" stroke-width="2" rx="4"/>
    
    <!-- Box Top -->
    <rect x="25" y="55" width="100" height="15" fill="#e2e8f0" stroke="#cbd5e1" stroke-width="1" rx="2"/>
    
    <!-- Cross Symbol -->
    <rect x="65" y="80" width="20" height="6" fill="#ef4444" rx="3"/>
    <rect x="72" y="73" width="6" height="20" fill="#ef4444" rx="3"/>
    
    <!-- Pills -->
    <circle cx="45" cy="110" r="8" fill="#3b82f6"/>
    <circle cx="105" cy="110" r="8" fill="#10b981"/>
    <ellipse cx="75" cy="125" rx="12" ry="6" fill="#f59e0b"/>
    
    <!-- Label Lines -->
    <rect x="30" y="100" width="40" height="2" fill="#94a3b8" rx="1"/>
    <rect x="30" y="105" width="30" height="2" fill="#94a3b8" rx="1"/>
  </g>
  
  <!-- Text -->
  <text x="150" y="200" text-anchor="middle" fill="#64748b" font-family="Arial, sans-serif" font-size="14" font-weight="500">
    Produk Apotek
  </text>
  
  <!-- Pharmacy Symbol -->
  <g transform="translate(130, 220)">
    <circle cx="20" cy="20" r="18" fill="none" stroke="#22c55e" stroke-width="2"/>
    <rect x="17" y="10" width="6" height="20" fill="#22c55e" rx="3"/>
    <rect x="12" y="17" width="16" height="6" fill="#22c55e" rx="3"/>
  </g>
</svg>