<svg width="200" height="200" viewBox="0 0 200 200" fill="none" xmlns="http://www.w3.org/2000/svg">
  <!-- Background -->
  <rect width="200" height="200" fill="#f1f5f9" stroke="#cbd5e1" stroke-width="2" rx="8"/>
  
  <!-- Main Category Icon -->
  <g transform="translate(50, 50)">
    <!-- Folder/Category Base -->
    <path d="M10 30 L90 30 L90 80 L10 80 Z" fill="#ffffff" stroke="#64748b" stroke-width="2" rx="4"/>
    <path d="M10 30 L30 20 L50 20 L60 30" fill="#e2e8f0" stroke="#64748b" stroke-width="2"/>
    
    <!-- Medical Items Inside -->
    <!-- Pill Bottle -->
    <rect x="20" y="40" width="12" height="20" fill="#3b82f6" stroke="#1e40af" stroke-width="1" rx="2"/>
    <rect x="22" y="38" width="8" height="4" fill="#1e40af" rx="1"/>
    
    <!-- Pills -->
    <circle cx="45" cy="45" r="3" fill="#ef4444"/>
    <circle cx="55" cy="48" r="3" fill="#10b981"/>
    <circle cx="50" cy="55" r="3" fill="#f59e0b"/>
    
    <!-- Syringe -->
    <rect x="65" y="42" width="2" height="15" fill="#6b7280" rx="1"/>
    <rect x="63" y="40" width="6" height="3" fill="#9ca3af" rx="1"/>
    <circle cx="67" cy="58" r="2" fill="#374151"/>
  </g>
  
  <!-- Category Label -->
  <rect x="30" y="140" width="140" height="25" fill="#ffffff" stroke="#cbd5e1" stroke-width="1" rx="4"/>
  <text x="100" y="157" text-anchor="middle" fill="#475569" font-family="Arial, sans-serif" font-size="12" font-weight="600">
    Kategori Apotek
  </text>
  
  <!-- Decorative Elements -->
  <circle cx="30" cy="30" r="4" fill="#22c55e" opacity="0.6"/>
  <circle cx="170" cy="30" r="4" fill="#3b82f6" opacity="0.6"/>
  <circle cx="30" cy="170" r="4" fill="#ef4444" opacity="0.6"/>
  <circle cx="170" cy="170" r="4" fill="#f59e0b" opacity="0.6"/>
</svg>