<svg width="100" height="100" viewBox="0 0 100 100" xmlns="http://www.w3.org/2000/svg">
  <!-- Background circle -->
  <circle cx="50" cy="50" r="50" fill="#8B5CF6"/>
  
  <!-- Pelanggan icon -->
  <g transform="translate(50,50)">
    <!-- Head -->
    <circle cx="0" cy="-10" r="12" fill="white"/>
    
    <!-- Body -->
    <path d="M -15 5 Q -15 0 -10 0 L 10 0 Q 15 0 15 5 L 15 25 Q 15 30 10 30 L -10 30 Q -15 30 -15 25 Z" fill="white"/>
    
    <!-- Smile -->
    <circle cx="-3" cy="-12" r="1" fill="#374151"/>
    <circle cx="3" cy="-12" r="1" fill="#374151"/>
    <path d="M -4 -6 Q 0 -3 4 -6" stroke="#374151" stroke-width="1" fill="none"/>
    
    <!-- Casual shirt collar -->
    <path d="M -8 0 L -6 -2 L 6 -2 L 8 0" fill="#E5E7EB" stroke="#9CA3AF" stroke-width="0.5"/>
    
    <!-- Shopping bag -->
    <rect x="10" y="5" width="6" height="8" fill="#10B981" stroke="#059669" stroke-width="0.5"/>
    <path d="M 11 5 Q 11 3 13 3 Q 15 3 15 5" stroke="#059669" stroke-width="0.5" fill="none"/>
  </g>
  
  <!-- Text -->
  <text x="50" y="85" text-anchor="middle" fill="white" font-family="Arial, sans-serif" font-size="7" font-weight="bold">PELANGGAN</text>
</svg>