<svg width="100" height="100" viewBox="0 0 100 100" xmlns="http://www.w3.org/2000/svg">
  <!-- Background circle -->
  <circle cx="50" cy="50" r="50" fill="#3B82F6"/>
  
  <!-- Apoteker icon -->
  <g transform="translate(50,50)">
    <!-- Head -->
    <circle cx="0" cy="-10" r="12" fill="white"/>
    
    <!-- Body -->
    <path d="M -15 5 Q -15 0 -10 0 L 10 0 Q 15 0 15 5 L 15 25 Q 15 30 10 30 L -10 30 Q -15 30 -15 25 Z" fill="white"/>
    
    <!-- Medical cross -->
    <rect x="-2" y="-20" width="4" height="12" fill="#EF4444"/>
    <rect x="-6" y="-16" width="12" height="4" fill="#EF4444"/>
    
    <!-- Lab coat collar -->
    <path d="M -10 0 L -8 -2 L 8 -2 L 10 0" fill="#E5E7EB" stroke="#9CA3AF" stroke-width="0.5"/>
    
    <!-- Stethoscope -->
    <circle cx="-8" cy="8" r="2" fill="#374151"/>
    <path d="M -8 6 Q -5 3 0 5" stroke="#374151" stroke-width="1" fill="none"/>
  </g>
  
  <!-- Text -->
  <text x="50" y="85" text-anchor="middle" fill="white" font-family="Arial, sans-serif" font-size="7" font-weight="bold">APOTEKER</text>
</svg>