<svg width="100" height="100" viewBox="0 0 100 100" xmlns="http://www.w3.org/2000/svg">
  <!-- Background circle -->
  <circle cx="50" cy="50" r="50" fill="#F59E0B"/>
  
  <!-- Kurir icon -->
  <g transform="translate(50,50)">
    <!-- Head -->
    <circle cx="0" cy="-10" r="12" fill="white"/>
    
    <!-- Body -->
    <path d="M -15 5 Q -15 0 -10 0 L 10 0 Q 15 0 15 5 L 15 25 Q 15 30 10 30 L -10 30 Q -15 30 -15 25 Z" fill="white"/>
    
    <!-- Cap -->
    <ellipse cx="0" cy="-18" rx="14" ry="4" fill="#F59E0B"/>
    <rect x="-12" y="-22" width="24" height="4" fill="#F59E0B"/>
    
    <!-- Package/Box -->
    <rect x="8" y="-5" width="8" height="8" fill="#8B5CF6" stroke="#6D28D9" stroke-width="1"/>
    <line x1="12" y1="-5" x2="12" y2="3" stroke="#6D28D9" stroke-width="1"/>
    <line x1="8" y1="-1" x2="16" y2="-1" stroke="#6D28D9" stroke-width="1"/>
    
    <!-- Uniform details -->
    <circle cx="-5" cy="8" r="1" fill="#374151"/>
    <circle cx="5" cy="8" r="1" fill="#374151"/>
  </g>
  
  <!-- Text -->
  <text x="50" y="85" text-anchor="middle" fill="white" font-family="Arial, sans-serif" font-size="8" font-weight="bold">KURIR</text>
</svg>